<?xml version="1.0" encoding="UTF-8"?>
<svg width="24px" height="24px" viewBox="0 0 24 24" version="1.1" xmlns="http://www.w3.org/2000/svg" xmlns:xlink="http://www.w3.org/1999/xlink">
    <!-- Generator: Sketch 60.1 (88133) - https://sketch.com -->
    <title>icon/操作/关联</title>
    <desc>Created with Sketch.</desc>
    <g id="icon/操作/关联" stroke="none" stroke-width="1" fill="none" fill-rule="evenodd">
        <g id="关联-01" transform="translate(0.000000, 3.000000)" fill="#1A6FE8">
            <path d="M8.4,15 C5.0862915,15 2.4,12.3137085 2.4,9 C2.4,5.6862915 5.0862915,3 8.4,3 L10.8,3 L10.8,0.6 L8.4,0.6 C3.76080815,0.6 1.25169755e-07,4.36080815 1.25169755e-07,9 C1.25169755e-07,13.6391918 3.76080815,17.4 8.4,17.4 L10.8,17.4 L10.8,15 L8.4,15 Z M15.6,0.6 L13.2,0.6 L13.2,3 L15.6,3 C18.9137085,3 21.6,5.6862915 21.6,9 C21.6,12.3137085 18.9137085,15 15.6,15 L13.2,15 L13.2,17.4 L15.6,17.4 C20.2391918,17.4 23.9999999,13.6391918 23.9999999,9 C23.9999999,4.36080815 20.2391918,0.6 15.6,0.6 Z M6,7.8 L18,7.8 L18,10.2 L6,10.2 L6,7.8 Z" id="形状"></path>
        </g>
    </g>
</svg>