<?xml version="1.0" encoding="UTF-8"?>
<svg width="14px" height="14px" viewBox="0 0 14 14" version="1.1" xmlns="http://www.w3.org/2000/svg" xmlns:xlink="http://www.w3.org/1999/xlink">
    <!-- Generator: Sketch 60.1 (88133) - https://sketch.com -->
    <title>通用/Icon图标/Line/AntDesign</title>
    <desc>Created with Sketch.</desc>
    <g id="组织架构" stroke="none" stroke-width="1" fill="none" fill-rule="evenodd">
        <g id="组织架构/公司部门" transform="translate(-26.000000, -129.000000)" fill="#005BB5">
            <g id="menu/组织架构">
                <g id="menu/区域管控/告警记录">
                    <g id="导航/Menu/一级菜单" transform="translate(1.000000, 116.000000)">
                        <g id="icon/管理" transform="translate(24.000000, 12.000000)">
                            <path d="M2,14 L5,14 L5,11 L2,11 L2,14 Z M11,14 L11,11 L12,11 L13,11 L14,11 L14,14 L11,14 Z M6.5,5 L9.5,5 L9.5,2 L6.5,2 L6.5,5 Z M10,1 L6,1 C5.724,1 5.5,1.224 5.5,1.5 L5.5,5.5 C5.5,5.776 5.724,6 6,6 L7.5,6 L7.5,7 L3.5,7 C3.224,7 3,7.224 3,7.5 L3,10 L1.5,10 C1.224,10 1,10.224 1,10.5 L1,14.5 C1,14.776 1.224,15 1.5,15 L5.5,15 C5.776,15 6,14.776 6,14.5 L6,10.5 C6,10.224 5.776,10 5.5,10 L4,10 L4,8 L12,8 L12,10 L10.5,10 C10.224,10 10,10.224 10,10.5 L10,14.5 C10,14.776 10.224,15 10.5,15 L14.5,15 C14.776,15 15,14.776 15,14.5 L15,10.5 C15,10.224 14.776,10 14.5,10 L13,10 L13,7.5 C13,7.224 12.776,7 12.5,7 L8.5,7 L8.5,6 L10,6 C10.276,6 10.5,5.776 10.5,5.5 L10.5,1.5 C10.5,1.224 10.276,1 10,1 L10,1 Z" id="Fill-1"></path>
                        </g>
                    </g>
                </g>
            </g>
        </g>
    </g>
</svg>