<?xml version="1.0" encoding="UTF-8"?>
<svg width="24px" height="24px" viewBox="0 0 24 24" version="1.1" xmlns="http://www.w3.org/2000/svg" xmlns:xlink="http://www.w3.org/1999/xlink">
    <!-- Generator: Sketch 60.1 (88133) - https://sketch.com -->
    <title>icon/操作/激活</title>
    <desc>Created with Sketch.</desc>
    <g id="icon/操作/激活" stroke="none" stroke-width="1" fill="none" fill-rule="evenodd">
        <g id="编组" transform="translate(1.000000, 2.000000)" fill="#1A6FE8">
            <path d="M17.1404,12 C19.3494,12 21.1404,13.791 21.1404,16 C21.1404,18.209 19.3494,20 17.1404,20 C14.9314,20 13.1404,18.209 13.1404,16 C13.1404,13.791 14.9314,12 17.1404,12 Z M9.9994,11 C10.4274,11 10.8544,11.033 11.2754,11.097 C11.7694,11.171 12.1404,11.586 12.1404,12.085 C12.1404,12.673 11.6294,13.15 11.0474,13.069 C10.6984,13.021 10.3494,13 9.9994,13 C6.7994,13 4.2004,15.1 3.2994,18 L3.2994,18 L12.1404,18 C12.6934,18 13.1404,18.447 13.1404,19 C13.1404,19.553 12.6934,20 12.1404,20 L12.1404,20 L0.9994,20 C0.9994,15 4.9994,11 9.9994,11 Z M17.1404,13.5 C15.7614,13.5 14.6404,14.621 14.6404,16 C14.6404,17.379 15.7614,18.5 17.1404,18.5 C18.5194,18.5 19.6404,17.379 19.6404,16 C19.6404,14.621 18.5194,13.5 17.1404,13.5 Z M18.2346,14.7949 C18.4006,14.6289 18.6756,14.6289 18.8416,14.7949 C18.9336,14.8809 18.9686,14.9899 18.9686,15.0989 C18.9686,15.2139 18.9336,15.3219 18.8416,15.4079 L18.8416,15.4079 L17.0886,17.1619 C16.8646,17.3859 16.5016,17.3859 16.2786,17.1619 L16.2786,17.1619 L15.4426,16.3259 C15.2696,16.1539 15.2696,15.8849 15.4426,15.7119 C15.5286,15.6259 15.6366,15.5859 15.7456,15.5859 C15.8546,15.5859 15.9696,15.6259 16.0496,15.7119 L16.0496,15.7119 L16.6866,16.3489 Z M10.9998,0 C13.7998,0 15.9998,2.2 15.9998,5 C15.9998,7.8 13.7998,10 10.9998,10 C8.1998,10 5.9998,7.8 5.9998,5 C5.9998,2.2 8.1998,0 10.9998,0 Z M10.9998,2 C9.2998,2 7.9998,3.3 7.9998,5 C7.9998,6.7 9.2998,8 10.9998,8 C12.6998,8 13.9998,6.7 13.9998,5 C13.9998,3.3 12.6998,2 10.9998,2 Z" id="形状结合"></path>
        </g>
    </g>
</svg>