<?xml version="1.0" encoding="UTF-8"?>
<svg width="24px" height="24px" viewBox="0 0 24 24" version="1.1" xmlns="http://www.w3.org/2000/svg" xmlns:xlink="http://www.w3.org/1999/xlink">
    <!-- Generator: Sketch 60.1 (88133) - https://sketch.com -->
    <title>icon/操作/详情</title>
    <desc>Created with Sketch.</desc>
    <g id="icon/操作/详情" stroke="none" stroke-width="1" fill="none" fill-rule="evenodd">
        <g id="file-text" transform="translate(3.000000, 1.000000)" fill="#1A6FE8">
            <path d="M17.0296875,5.7640625 L11.9859375,0.7203125 C11.8453125,0.5796875 11.6554687,0.5 11.45625,0.5 L1.5,0.5 C1.08515625,0.5 0.75,0.83515625 0.75,1.25 L0.75,20.75 C0.75,21.1648438 1.08515625,21.5 1.5,21.5 L16.5,21.5 C16.9148437,21.5 17.25,21.1648438 17.25,20.75 L17.25,6.29609375 C17.25,6.096875 17.1703125,5.9046875 17.0296875,5.7640625 Z M15.5203125,6.640625 L11.109375,6.640625 L11.109375,2.2296875 L15.5203125,6.640625 Z M15.5625,19.8125 L2.4375,19.8125 L2.4375,2.1875 L9.515625,2.1875 L9.515625,7.25 C9.515625,7.79375 9.95625,8.234375 10.5,8.234375 L15.5625,8.234375 L15.5625,19.8125 Z M8.8125,13.484375 L4.5,13.484375 C4.396875,13.484375 4.3125,13.56875 4.3125,13.671875 L4.3125,14.796875 C4.3125,14.9 4.396875,14.984375 4.5,14.984375 L8.8125,14.984375 C8.915625,14.984375 9,14.9 9,14.796875 L9,13.671875 C9,13.56875 8.915625,13.484375 8.8125,13.484375 Z M4.3125,10.484375 L4.3125,11.609375 C4.3125,11.7125 4.396875,11.796875 4.5,11.796875 L13.5,11.796875 C13.603125,11.796875 13.6875,11.7125 13.6875,11.609375 L13.6875,10.484375 C13.6875,10.38125 13.603125,10.296875 13.5,10.296875 L4.5,10.296875 C4.396875,10.296875 4.3125,10.38125 4.3125,10.484375 Z" id="形状"></path>
        </g>
    </g>
</svg>