<?xml version="1.0" encoding="utf-8"?>
<!-- Generator: Adobe Illustrator 21.0.0, SVG Export Plug-In . SVG Version: 6.00 Build 0)  -->
<svg version="1.1" id="图层_1" xmlns="http://www.w3.org/2000/svg" xmlns:xlink="http://www.w3.org/1999/xlink" x="0px" y="0px"
	 viewBox="0 0 16 16" style="enable-background:new 0 0 16 16;" xml:space="preserve">
<path d="M7.9,9.8C7,9.8,6.2,9,6.2,8S7,6.2,7.9,6.2S9.7,7,9.7,8S8.9,9.8,7.9,9.8z M7.9,5.2C6.4,5.2,5.2,6.5,5.2,8s1.2,2.8,2.8,2.8
	s2.7-1.2,2.7-2.8S9.5,5.2,7.9,5.2z M8,12c-2.5,0-4.4-1.3-5.7-4C3.6,5.3,5.5,4,8,4s4.4,1.3,5.7,4C12.4,10.7,10.5,12,8,12z M14.7,7.6
	C13.2,4.5,11,2.9,8,2.9S2.8,4.5,1.3,7.6c-0.1,0.3-0.1,0.6,0,0.8C2.8,11.5,5,13.1,8,13.1s5.2-1.6,6.7-4.7C14.8,8.1,14.8,7.9,14.7,7.6
	z"/>
</svg>
