<?xml version="1.0" encoding="UTF-8"?>
<svg width="12px" height="12px" viewBox="0 0 12 12" version="1.1" xmlns="http://www.w3.org/2000/svg" xmlns:xlink="http://www.w3.org/1999/xlink">
    <!-- Generator: Sketch 60.1 (88133) - https://sketch.com -->
    <title>通用/Icon图标/Line/AntDesign</title>
    <desc>Created with Sketch.</desc>
    <g id="井口管理" stroke="none" stroke-width="1" fill="none" fill-rule="evenodd" fill-opacity="0.65">
        <g id="楼栋管理/楼栋详情" transform="translate(-26.000000, -234.000000)" fill="#000000">
            <g id="menu/井口管理">
                <g id="menu/区域管控/告警记录">
                    <g id="导航/Menu/一级菜单" transform="translate(0.000000, 220.000000)">
                        <g id="icon/楼栋" transform="translate(24.000000, 12.000000)">
                            <g id="编组" transform="translate(2.000000, 2.000000)">
                                <path d="M7.8,0 C7.91,0 8,0.09 8,0.2 L8,0.2 L8,3 L10.8,3 C10.91,3 11,3.09 11,3.2 L11,3.2 L11,11 L11.8,11 C11.91,11 12,11.09 12,11.2 L12,11.2 L12,11.8 C12,11.91 11.91,12 11.8,12 L11.8,12 L0.2,12 C0.09,12 0,11.91 0,11.8 L0,11.8 L0,11.2 C0,11.09 0.09,11 0.2,11 L0.2,11 L1,11 L1,0.2 C1,0.09 1.09,0 1.2,0 L1.2,0 Z M10,4 L8,4 L8,11 L10,11 L10,4 Z M7,1 L2,1 L2,11 L7,11 L7,1 Z M5.5,9 C5.776,9 6,9.224 6,9.5 C6,9.74533333 5.82301235,9.94958025 5.58983813,9.99193964 L5.5,10 L3.5,10 C3.224,10 3,9.776 3,9.5 C3,9.25466667 3.17698765,9.05041975 3.41016187,9.00806036 L3.5,9 L5.5,9 Z M9.25,9 C9.526,9 9.75,9.224 9.75,9.5 C9.75,9.74533333 9.57301235,9.94958025 9.33983813,9.99193964 L9.25,10 L8.75,10 C8.474,10 8.25,9.776 8.25,9.5 C8.25,9.25466667 8.42698765,9.05041975 8.66016187,9.00806036 L8.75,9 L9.25,9 Z M5.5,6 C5.776,6 6,6.224 6,6.5 C6,6.74533333 5.82301235,6.94958025 5.58983813,6.99193964 L5.5,7 L3.5,7 C3.224,7 3,6.776 3,6.5 C3,6.25466667 3.17698765,6.05041975 3.41016187,6.00806036 L3.5,6 L5.5,6 Z M9.25,6 C9.526,6 9.75,6.224 9.75,6.5 C9.75,6.74533333 9.57301235,6.94958025 9.33983813,6.99193964 L9.25,7 L8.75,7 C8.474,7 8.25,6.776 8.25,6.5 C8.25,6.25466667 8.42698765,6.05041975 8.66016187,6.00806036 L8.75,6 L9.25,6 Z M5.5,3 C5.776,3 6,3.224 6,3.5 C6,3.74533333 5.82301235,3.94958025 5.58983813,3.99193964 L5.5,4 L3.5,4 C3.224,4 3,3.776 3,3.5 C3,3.25466667 3.17698765,3.05041975 3.41016187,3.00806036 L3.5,3 L5.5,3 Z" id="形状结合"></path>
                            </g>
                        </g>
                    </g>
                </g>
            </g>
        </g>
    </g>
</svg>