<?xml version="1.0" encoding="UTF-8"?>
<svg width="14px" height="14px" viewBox="0 0 14 14" version="1.1" xmlns="http://www.w3.org/2000/svg" xmlns:xlink="http://www.w3.org/1999/xlink">
    <!-- Generator: Sketch 60.1 (88133) - https://sketch.com -->
    <title>通用/Icon图标/Line/AntDesign</title>
    <desc>Created with Sketch.</desc>
    <defs>
        <polygon id="path-1" points="0 0 14 0 14 13.9998 0 13.9998"></polygon>
    </defs>
    <g id="组织架构" stroke="none" stroke-width="1" fill="none" fill-rule="evenodd">
        <g id="组织架构/员工管理" transform="translate(-25.000000, -281.000000)">
            <g id="menu/组织架构/员工管理" transform="translate(0.000000, 56.000000)">
                <g id="menu/区域管控/告警记录">
                    <g id="导航/Menu/一级菜单" transform="translate(0.000000, 212.000000)">
                        <g id="icon/区域管控" transform="translate(24.000000, 12.000000)">
                            <g id="编组" transform="translate(1.000000, 1.000000)">
                                <g>
                                    <mask id="mask-2" fill="white">
                                        <use xlink:href="#path-1"></use>
                                    </mask>
                                    <g id="Clip-2"></g>
                                    <path d="M7.625,12.7158 L7.625,11.6248 C7.625,11.2798 7.345,10.9998 7,10.9998 C6.655,10.9998 6.375,11.2798 6.375,11.6248 L6.375,12.7158 C3.699,12.4268 1.573,10.3018 1.284,7.6248 L2.375,7.6248 C2.72,7.6248 3,7.3448 3,6.9998 C3,6.6548 2.72,6.3748 2.375,6.3748 L1.284,6.3748 C1.573,3.6978 3.699,1.5728 6.375,1.2838 L6.375,2.3748 C6.375,2.7208 6.655,2.9998 7,2.9998 C7.345,2.9998 7.625,2.7208 7.625,2.3748 L7.625,1.2838 C10.301,1.5728 12.427,3.6988 12.716,6.3748 L11.625,6.3748 C11.28,6.3748 11,6.6548 11,6.9998 C11,7.3458 11.28,7.6248 11.625,7.6248 L12.716,7.6248 C12.427,10.3018 10.301,12.4268 7.625,12.7158 M14,6.9998 C14,3.1338 10.866,-0.0002 7,-0.0002 C3.134,-0.0002 0,3.1338 0,6.9998 C0,10.8658 3.134,13.9998 7,13.9998 C10.866,13.9998 14,10.8658 14,6.9998" id="Fill-1" fill-opacity="0.65" fill="#000000" mask="url(#mask-2)"></path>
                                </g>
                                <path d="M7,7.75 C6.586,7.75 6.25,7.414 6.25,7 C6.25,6.586 6.586,6.25 7,6.25 C7.414,6.25 7.75,6.586 7.75,7 C7.75,7.414 7.414,7.75 7,7.75 M7,5 C5.896,5 5,5.896 5,7 C5,8.104 5.896,9 7,9 C8.104,9 9,8.104 9,7 C9,5.896 8.104,5 7,5" id="Fill-3" fill-opacity="0.65" fill="#000000"></path>
                            </g>
                        </g>
                    </g>
                </g>
            </g>
        </g>
    </g>
</svg>