<?xml version="1.0" encoding="utf-8"?>
<!-- Generator: Adobe Illustrator 24.0.2, SVG Export Plug-In . SVG Version: 6.00 Build 0)  -->
<svg version="1.1" xmlns="http://www.w3.org/2000/svg" xmlns:xlink="http://www.w3.org/1999/xlink" x="0px" y="0px"
	 viewBox="0 0 16 16" style="enable-background:new 0 0 16 16;" xml:space="preserve">
<style type="text/css">
	.st0{opacity:0;clip-path:url(#SVGID_4_);}
	.st1{opacity:0.65;clip-path:url(#SVGID_6_);}
	.st2{opacity:0;clip-path:url(#SVGID_10_);}
	.st3{opacity:0.65;clip-path:url(#SVGID_12_);}
	.st4{opacity:0;clip-path:url(#SVGID_16_);}
	.st5{opacity:0.65;clip-path:url(#SVGID_18_);}
	.st6{opacity:0.65;clip-path:url(#SVGID_20_);}
	.st7{fill-opacity:0;}
	.st8{fill-rule:evenodd;clip-rule:evenodd;fill:#FFFFFF;fill-opacity:0;}
	.st9{fill-rule:evenodd;clip-rule:evenodd;}
	.st10{fill-rule:evenodd;clip-rule:evenodd;fill-opacity:0;}
	.st11{fill:#2C2C2C;}
	.st12{opacity:0;clip-path:url(#SVGID_22_);}
	.st13{clip-path:url(#SVGID_24_);enable-background:new    ;}
	.st14{clip-path:url(#SVGID_26_);}
	.st15{clip-path:url(#SVGID_28_);}
	.st16{clip-path:url(#SVGID_30_);}
	.st17{clip-path:url(#SVGID_32_);}
	.st18{opacity:0;clip-path:url(#SVGID_34_);}
	.st19{clip-path:url(#SVGID_36_);}
</style>
<g id="图层_1">
	<g id="user">
		<g>
			<rect id="矩形_3_" class="st7" width="16" height="16"/>
			<path id="形状_2_" d="M13.4,11.9c-0.3-0.7-0.7-1.3-1.3-1.9s-1.2-1-1.9-1.3c0,0,0,0,0,0c1-0.7,1.6-1.8,1.6-3.1
				c0-2.1-1.7-3.9-3.9-3.9S4.1,3.5,4.1,5.7c0,1.3,0.6,2.4,1.6,3.1c0,0,0,0,0,0C5,9.1,4.4,9.5,3.8,10.1c-0.5,0.5-1,1.2-1.3,1.9
				c-0.3,0.7-0.4,1.4-0.5,2.2c0,0.1,0.1,0.1,0.1,0.1h0.9c0.1,0,0.1-0.1,0.1-0.1c0-1.2,0.5-2.3,1.4-3.2C5.6,10,6.7,9.5,8,9.5
				s2.4,0.5,3.3,1.4c0.9,0.9,1.3,2,1.4,3.2c0,0.1,0.1,0.1,0.1,0.1h0.9c0.1,0,0.1-0.1,0.1-0.1C13.9,13.3,13.7,12.6,13.4,11.9z M8,8.3
				c-0.7,0-1.4-0.3-1.9-0.8S5.3,6.4,5.3,5.7s0.3-1.4,0.8-1.9S7.3,3,8,3s1.4,0.3,1.9,0.8s0.8,1.2,0.8,1.9S10.4,7,9.9,7.6
				S8.7,8.3,8,8.3z"/>
		</g>
	</g>
</g>
<g id="图层_2">
</g>
</svg>
